2.8Hzlow3min_grf.mot
version=1
nRows=27
nColumns 19
inDegrees=yes
endheader
time	1_ground_force_vx	1_ground_force_vy	1_ground_force_vz	1_ground_force_px	1_ground_force_py	1_ground_force_pz	1_ground_torque_x	1_ground_torque_y	1_ground_torque_z	2_ground_force_vx	2_ground_force_vy	2_ground_force_vz	2_ground_force_px	2_ground_force_py	2_ground_force_pz	2_ground_torque_x	2_ground_torque_y	2_ground_torque_z
            3.751500	           -4.148726	           72.843050	           -3.529380	           -0.238808	            0.006471	           -0.463493	            0.019409	           -0.340785	            0.016512	           -3.779969	            8.647464	           -1.656936	           -0.232311	            0.006130	           -0.833667	           -1.425196	           -0.695202	           -0.001855
            3.752000	           -4.607641	           71.762547	           -3.808015	           -0.240275	            0.006464	           -0.461735	            0.025832	           -0.402325	            0.021349	           -3.633314	            6.989632	           -1.381341	           -0.232311	            0.006130	           -0.833667	           -1.387583	           -0.704586	            0.016946
            3.752500	           -4.790001	           69.958675	           -3.540154	           -0.240522	            0.006462	           -0.461260	            0.025617	           -0.374145	            0.018933	           -3.446682	            7.175294	           -1.615404	           -0.232311	            0.006130	           -0.833667	           -1.256290	           -0.647395	            0.017092
            3.753000	           -4.652371	           68.156438	           -3.639937	           -0.238987	            0.006469	           -0.462918	            0.025759	           -0.377365	            0.020153	           -3.397797	            6.622683	           -1.523539	           -0.232311	            0.006130	           -0.833667	           -1.218694	           -0.656645	           -0.001808
            3.753500	           -4.696827	           66.171738	           -3.235623	           -0.240271	            0.006457	           -0.460085	            0.025701	           -0.362087	            0.017705	           -3.727761	            7.174112	           -1.568356	           -0.232311	            0.006130	           -0.833667	           -1.030628	           -0.703566	            0.092195
            3.754000	           -4.926561	           65.271545	           -3.514054	           -0.239964	            0.006456	           -0.459909	            0.027273	           -0.361332	            0.019453	           -3.628080	            5.517115	           -1.574309	           -0.232311	            0.006130	           -0.833667	           -0.974390	           -0.684054	           -0.020863
            3.754500	           -4.834366	           63.108178	           -3.477701	           -0.239746	            0.006462	           -0.461357	            0.020486	           -0.267431	            0.014737	           -3.673497	            5.147812	           -1.340963	           -0.232311	            0.006130	           -0.833667	           -0.936862	           -0.674398	           -0.039696
            3.755000	           -5.246381	           61.845648	           -3.344520	           -0.239582	            0.006452	           -0.458998	            0.026631	           -0.313929	            0.016977	           -3.808189	            3.490974	           -1.628386	           -0.232311	            0.006130	           -0.833667	           -0.861764	           -0.655423	            0.016890
            3.755500	           -5.520573	           60.222221	           -3.121515	           -0.240227	            0.006449	           -0.458390	            0.027609	           -0.301174	            0.015611	           -3.199805	            3.677322	           -1.627987	           -0.232311	            0.006130	           -0.833667	           -0.768170	           -0.560625	            0.036038
            3.756000	           -5.658310	           58.240255	           -3.358956	           -0.239654	            0.006463	           -0.461542	            0.031964	           -0.329003	            0.018975	           -2.920597	            4.229945	           -1.391495	           -0.232311	            0.006130	           -0.833667	           -0.786913	           -0.570212	            0.054862
            3.756500	           -5.657525	           56.436812	           -3.183262	           -0.240843	            0.006460	           -0.460987	            0.033298	           -0.332161	            0.018735	           -2.871088	            3.493521	           -1.394144	           -0.232311	            0.006130	           -0.833667	           -0.580272	           -0.587834	           -0.096094
            3.757000	           -5.841140	           55.896569	           -3.322693	           -0.240994	            0.006439	           -0.456112	            0.028763	           -0.275242	            0.016361	           -2.774751	            2.757433	           -1.443740	           -0.232311	            0.006130	           -0.833667	           -0.730665	           -0.559951	           -0.114780
            3.757500	           -6.161304	           53.732729	           -3.193605	           -0.239165	            0.006440	           -0.456249	            0.037774	           -0.329430	            0.019580	           -3.004992	            1.651530	           -1.400654	           -0.232311	            0.006130	           -0.833667	           -0.505098	           -0.587831	           -0.020726
            3.758000	           -6.207438	           52.832179	           -3.380779	           -0.239183	            0.006441	           -0.456504	            0.025725	           -0.218949	            0.014011	           -3.010268	            3.124382	           -1.301542	           -0.232311	            0.006130	           -0.833667	           -0.505116	           -0.569329	            0.092443
            3.758500	           -6.344362	           51.389437	           -3.249054	           -0.240217	            0.006441	           -0.456477	            0.030084	           -0.243681	            0.015407	           -3.238556	            1.466368	           -1.354284	           -0.232311	            0.006130	           -0.833667	           -0.448863	           -0.540768	            0.092520
            3.759000	           -6.435881	           49.226624	           -3.349814	           -0.239781	            0.006445	           -0.457493	            0.025581	           -0.195664	            0.013315	           -3.193159	            1.835838	           -1.634558	           -0.232311	            0.006130	           -0.833667	           -0.392411	           -0.578039	           -0.001890
            3.759500	           -6.802557	           47.604556	           -3.447572	           -0.242128	            0.006444	           -0.457330	            0.046358	           -0.324412	            0.023494	           -2.909983	            1.283739	           -1.448936	           -0.232311	            0.006130	           -0.833667	           -0.411419	           -0.512072	            0.036055
            3.760000	           -6.664633	           45.441394	           -3.457189	           -0.239176	            0.006470	           -0.463155	            0.050768	           -0.346152	            0.026335	           -2.725989	            2.205827	           -1.633443	           -0.232311	            0.006130	           -0.833667	           -0.279793	           -0.549341	            0.017014
            3.760500	           -6.663669	           43.277223	           -3.237185	           -0.239820	            0.006482	           -0.466031	            0.047564	           -0.308903	            0.023106	           -2.491575	            2.205333	           -1.258118	           -0.232311	            0.006130	           -0.833667	           -0.355122	           -0.502214	           -0.020486
            3.761000	           -6.984471	           42.736364	           -3.238707	           -0.239322	            0.006463	           -0.461633	            0.049261	           -0.301415	            0.022842	           -2.343591	            0.179205	           -0.983837	           -0.232311	            0.006130	           -0.833667	           -0.298655	           -0.530436	           -0.001761
            3.761500	           -7.121559	           42.194950	           -3.103117	           -0.239424	            0.006456	           -0.459848	            0.042678	           -0.252863	            0.018596	           -2.395237	            1.469246	           -1.307714	           -0.232311	            0.006130	           -0.833667	           -0.204797	           -0.511192	           -0.001733
            3.762000	           -7.121101	           40.932698	           -3.016816	           -0.238102	            0.006448	           -0.458051	            0.032944	           -0.189362	            0.013956	           -2.486861	            0.915793	           -1.121933	           -0.232311	            0.006130	           -0.833667	           -0.223660	           -0.483103	            0.054926
            3.762500	           -7.166696	           38.949963	           -3.071061	           -0.236586	            0.006467	           -0.462397	            0.043148	           -0.234502	            0.018490	           -2.389818	           -0.004778	           -1.078330	           -0.232311	            0.006130	           -0.833667	           -0.299226	           -0.378991	           -0.057772
            3.763000	           -7.304435	           38.229463	           -3.211379	           -0.239926	            0.006457	           -0.460190	            0.057312	           -0.299957	            0.025197	           -1.691016	            1.102315	           -0.980830	           -0.232311	            0.006130	           -0.833667	           -0.186949	           -0.255767	           -0.038531
            3.763500	           -7.304238	           37.147869	           -3.216017	           -0.240546	            0.006453	           -0.459237	            0.051745	           -0.263166	            0.022783	           -0.850273	            1.841116	           -0.743920	           -0.232311	            0.006130	           -0.833667	           -0.281139	           -0.189735	           -0.094806
            3.764000	           -7.441863	           36.427173	           -3.310479	           -0.241182	            0.006437	           -0.455510	            0.038147	           -0.186724	            0.016969	           -0.047782	            0.186155	           -0.609388	           -0.232311	            0.006130	           -0.833667	           -0.225115	           -0.104256	           -0.151077
            3.764500	           -7.486694	           34.623328	           -3.042960	           -0.240024	            0.006440	           -0.456260	            0.042832	           -0.198082	            0.017409	            0.045397	            0.369470	           -0.280274	           -0.232311	            0.006130	           -0.833667	           -0.149957	           -0.104119	           -0.113408
